<svg xmlns="http://www.w3.org/2000/svg" width="1005" height="600"><rect width="1005" height="600" x="0" y="0" fill="#FFFFFF" id="backgorund"/><g id="viz"><g transform="translate(0,0)"><g transform="translate(50,20)"><g id="2011" fill="#a65221"><rect x="19.47712418300648" y="406" width="161.90359477124184" height="154"/><rect x="200.85784313725486" y="462" width="161.90359477124184" height="98"/><rect x="382.23856209150324" y="448" width="161.90359477124184" height="112"/><rect x="563.6192810457517" y="336" width="161.90359477124184" height="224"/></g><g id="2020" fill="#c9eef2"><rect x="19.47712418300648" y="266" width="161.90359477124184" height="140"/><rect x="200.85784313725486" y="350" width="161.90359477124184" height="112"/><rect x="382.23856209150324" y="392" width="161.90359477124184" height="56"/><rect x="563.6192810457517" y="55.999999999999986" width="161.90359477124184" height="280"/></g><g id="xAxis" transform="translate(0,560)" fill="none" font-size="10" font-family="sans-serif" text-anchor="middle"><path class="domain" stroke="currentColor" d="M0.5,0.5H745.5"/><g class="tick" opacity="1" transform="translate(100.4289215686274,0)"><line stroke="currentColor" y2="6"/><text fill="currentColor" y="9" dy="0.71em">Alto</text></g><g class="tick" opacity="1" transform="translate(281.8096405228758,0)"><line stroke="currentColor" y2="6"/><text fill="currentColor" y="9" dy="0.71em">Medio Alto</text></g><g class="tick" opacity="1" transform="translate(463.19035947712416,0)"><line stroke="currentColor" y2="6"/><text fill="currentColor" y="9" dy="0.71em">Medio Bajo</text></g><g class="tick" opacity="1" transform="translate(644.5710784313726,0)"><line stroke="currentColor" y2="6"/><text fill="currentColor" y="9" dy="0.71em">Bajo</text></g></g><g id="yAxis" fill="none" font-size="10" font-family="sans-serif" text-anchor="end"><path class="domain" stroke="currentColor" d="M0.5,560.5V0.5"/><g class="tick" opacity="1" transform="translate(0,560.5)"><line stroke="currentColor" x2="-6"/><text fill="currentColor" x="-9" dy="0.32em">0</text></g><g class="tick" opacity="1" transform="translate(0,490.5)"><line stroke="currentColor" x2="-6"/><text fill="currentColor" x="-9" dy="0.32em">5</text></g><g class="tick" opacity="1" transform="translate(0,420.5)"><line stroke="currentColor" x2="-6"/><text fill="currentColor" x="-9" dy="0.32em">10</text></g><g class="tick" opacity="1" transform="translate(0,350.5)"><line stroke="currentColor" x2="-6"/><text fill="currentColor" x="-9" dy="0.32em">15</text></g><g class="tick" opacity="1" transform="translate(0,280.5)"><line stroke="currentColor" x2="-6"/><text fill="currentColor" x="-9" dy="0.32em">20</text></g><g class="tick" opacity="1" transform="translate(0,210.5)"><line stroke="currentColor" x2="-6"/><text fill="currentColor" x="-9" dy="0.32em">25</text></g><g class="tick" opacity="1" transform="translate(0,140.5)"><line stroke="currentColor" x2="-6"/><text fill="currentColor" x="-9" dy="0.32em">30</text></g><g class="tick" opacity="1" transform="translate(0,70.5)"><line stroke="currentColor" x2="-6"/><text fill="currentColor" x="-9" dy="0.32em">35</text></g><g class="tick" opacity="1" transform="translate(0,0.5)"><line stroke="currentColor" x2="-6"/><text fill="currentColor" x="-9" dy="0.32em">40</text></g></g><text y="556" x="745" text-anchor="end" style="font-family: Arial, sans-serif; font-size: 12px; fill: rgb(123, 123, 123); font-weight: bold;"/></g><text x="4" y="4" style="font-family: Arial, sans-serif; font-size: 12px; fill: black; font-weight: bold; dominant-baseline: hanging;"/></g><g id="grid"><rect x="0" y="0" width="805" height="600" fill="none" stroke="#ccc"/></g></g><g id="legend" transform="translate(805,20)"><g transform="translate(5,0)"><g class="legendColor" transform="translate(0,0)"><g class="legendCells" transform="translate(0,16.015625)"><g class="cell" transform="translate(0, 0)"><rect class="swatch" height="15" width="15" style="fill: rgb(166, 82, 33);"/><text class="label" transform="translate( 20, 12.5)" font-family="&quot;Arial&quot;, sans-serif" font-size="10px"><tspan x="0" dy="0em">2011</tspan></text></g><g class="cell" transform="translate(0, 21.015625)"><rect class="swatch" height="15" width="15" style="fill: rgb(201, 238, 242);"/><text class="label" transform="translate( 20, 12.5)" font-family="&quot;Arial&quot;, sans-serif" font-size="10px"><tspan x="0" dy="0em">2020</tspan></text></g></g><text class="legendTitle" font-family="&quot;Arial&quot;, sans-serif" font-size="12px" font-weight="bold"><tspan x="0" dy="0em">Colors</tspan></text></g></g></g></svg>